<svg xmlns="http://www.w3.org/2000/svg" width="22" height="38" viewBox="0 0 22 38">
  <defs>
    <style>
      .cls-1 {
        fill: #fff;
        fill-rule: evenodd;
      }
    </style>
  </defs>
  <path id="contact-icon-2" class="cls-1" d="M449.45,724h-16.9a2.571,2.571,0,0,0-2.561,2.567v32.865A2.573,2.573,0,0,0,432.55,762h16.9a2.57,2.57,0,0,0,2.56-2.567V726.567A2.57,2.57,0,0,0,449.45,724ZM438.3,725.85H443.7a0.311,0.311,0,0,1,0,.622H438.3A0.311,0.311,0,0,1,438.3,725.85Zm2.7,34.867a1.284,1.284,0,1,1,1.28-1.284A1.282,1.282,0,0,1,441,760.717Zm9.229-3.467H431.771V728.07h18.458v29.18Z" transform="translate(-430 -724)"/>
</svg>
