<svg xmlns="http://www.w3.org/2000/svg" width="37" height="36" viewBox="0 0 37 36">
  <defs>
    <style>
      .cls-1 {
        fill: #fff;
        fill-rule: evenodd;
      }
    </style>
  </defs>
  <path id="contact-icon-1" class="cls-1" d="M440.714,643.6a4.2,4.2,0,1,0-4.235-4.2A4.223,4.223,0,0,0,440.714,643.6Zm0-7.2a3,3,0,1,1-3.025,3A3.016,3.016,0,0,1,440.714,636.4Zm11.662,13.8h-4.332l1.843-2.64c3.482-4.6,2.978-12.169-1.077-16.19a11.669,11.669,0,0,0-16.406,0c-4.055,4.021-4.559,11.588-1.092,16.172l1.856,2.658h-4.544L422,664h37Zm-20.082-3.36c-3.145-4.16-2.694-10.993.966-14.622a10.45,10.45,0,0,1,14.695,0c3.66,3.629,4.111,10.462.952,14.64l-8.3,11.887L434.64,650.2h0Zm-2.906,4.56h4.618l6.6,9.454,6.6-9.454h4.4l5.474,11.4h-33.17Z" transform="translate(-422 -628)"/>
</svg>
