<svg xmlns="http://www.w3.org/2000/svg" width="40" height="29" viewBox="0 0 40 29">
  <defs>
    <style>
      .cls-1 {
        fill: #fff;
        fill-rule: evenodd;
      }
    </style>
  </defs>
  <path id="contact-icon-3" class="cls-1" d="M453.386,844.4a0.632,0.632,0,0,1-.441-0.179l-7.422-7.1a0.666,0.666,0,0,1-.028-0.929,0.633,0.633,0,0,1,.912-0.029l7.422,7.1a0.665,0.665,0,0,1,.028.928A0.633,0.633,0,0,1,453.386,844.4Zm-24.774,0a0.638,0.638,0,0,1-.471-0.208,0.665,0.665,0,0,1,.029-0.928l7.424-7.1a0.637,0.637,0,0,1,.912.029,0.666,0.666,0,0,1-.028.929l-7.425,7.1A0.63,0.63,0,0,1,428.612,844.4Zm29.164,6.6H424.224A3.26,3.26,0,0,1,421,847.713V825.286A3.261,3.261,0,0,1,424.224,822h33.552A3.261,3.261,0,0,1,461,825.286v22.427A3.26,3.26,0,0,1,457.776,851Zm-33.552-27.689a1.956,1.956,0,0,0-1.935,1.973v22.427a1.957,1.957,0,0,0,1.935,1.974h33.552a1.957,1.957,0,0,0,1.935-1.974V825.286a1.956,1.956,0,0,0-1.935-1.973H424.224ZM441,839.805a3.563,3.563,0,0,1-2.368-.871L422.07,824.2a0.668,0.668,0,0,1-.063-0.929,0.641,0.641,0,0,1,.911-0.063l16.561,14.735a2.376,2.376,0,0,0,3.04,0L459.06,823.23a0.637,0.637,0,0,1,.911.063,0.669,0.669,0,0,1-.062.929l-16.541,14.711A3.563,3.563,0,0,1,441,839.805Z" transform="translate(-421 -822)"/>
</svg>
