<svg xmlns="http://www.w3.org/2000/svg" width="76" height="69" viewBox="0 0 76 69">
  <defs>
    <style>
      .cls-1 {
        fill: #3261ab;
        fill-rule: evenodd;
      }
    </style>
  </defs>
  <path id="Forma_1" data-name="Forma 1" class="cls-1" d="M395.139,1143.18l6.3-6.31,6.3,6.31a2.425,2.425,0,1,0,3.428-3.43l-6.3-6.31,6.3-6.3a2.425,2.425,0,0,0-3.428-3.43l-6.3,6.3-6.3-6.3a2.425,2.425,0,0,0-3.429,3.43l6.3,6.3-6.3,6.31A2.425,2.425,0,0,0,395.139,1143.18Zm48.091,28.64a2.436,2.436,0,0,0-3.428,0l-6.3,6.31-6.3-6.31a2.425,2.425,0,1,0-3.429,3.43l6.3,6.31-6.3,6.3a2.425,2.425,0,1,0,3.428,3.43l6.3-6.3,6.3,6.3a2.425,2.425,0,0,0,3.429-3.43l-6.3-6.3,6.3-6.31A2.426,2.426,0,0,0,443.23,1171.82Zm0.189-34.01-9.777-8.5a2.424,2.424,0,0,0-3.18,3.66l5.184,4.51c-15.3,2-24.364,10-29.4,16.77a46.308,46.308,0,0,0-7.428,15.1,12,12,0,0,1,1.478-.1,10.92,10.92,0,0,1,3.444.55,42.125,42.125,0,0,1,6.51-12.81c6.3-8.38,15.064-13.31,26.082-14.72l-4.831,5.56a2.427,2.427,0,0,0,3.659,3.19l8.5-9.79A2.423,2.423,0,0,0,443.419,1137.81ZM400.3,1173.24a7.17,7.17,0,1,0,7.164,7.17A7.178,7.178,0,0,0,400.3,1173.24ZM459.836,1132a7.17,7.17,0,1,0,7.164,7.17A7.178,7.178,0,0,0,459.836,1132Z" transform="translate(-391 -1123)"/>
</svg>
