<svg xmlns="http://www.w3.org/2000/svg" xmlns:xlink="http://www.w3.org/1999/xlink" width="54" height="73" viewBox="0 0 54 73">
  <defs>
    <style>
      .cls-1 {
        fill: #25ae60;
        fill-rule: evenodd;
        filter: url(#filter);
      }
    </style>
    <filter id="filter" x="394" y="2501" width="54" height="73" filterUnits="userSpaceOnUse">
      <feFlood result="flood" flood-color="#fff"/>
      <feComposite result="composite" operator="in" in2="SourceGraphic"/>
      <feBlend result="blend" in2="SourceGraphic"/>
    </filter>
  </defs>
  <path id="icon-services-3" class="cls-1" d="M407.182,2526.27a11.647,11.647,0,0,0,11.817,0c4.335-2.56,6.686-7.62,6.45-13.89-0.26-6.91-5.5-10.57-10.757-11.32a24.823,24.823,0,0,0-2.979-.03c-5.331.68-10.717,4.34-10.981,11.35C400.5,2518.65,402.847,2523.71,407.182,2526.27Zm5.909-21.96a9.54,9.54,0,0,1,7.523,3.72,48.2,48.2,0,0,1-16.438,3.83C404.692,2506.87,408.942,2504.47,413.091,2504.31Zm8.814,6.84a9.33,9.33,0,0,1,.146,1.35c0.188,5-1.557,8.96-4.789,10.86a8.2,8.2,0,0,1-8.343,0c-2.615-1.54-4.257-4.43-4.688-8.12A51.6,51.6,0,0,0,421.905,2511.15Zm24.557,45.26a9.6,9.6,0,0,1-6.613-3.29,1.721,1.721,0,0,0-2.756,0,9.592,9.592,0,0,1-6.612,3.29,1.7,1.7,0,0,0-1.522,1.67v3.75a12.537,12.537,0,0,0,9.03,12.11,1.831,1.831,0,0,0,.465.06,2.053,2.053,0,0,0,.493-0.06A12.555,12.555,0,0,0,448,2561.83v-3.75A1.714,1.714,0,0,0,446.462,2556.41Zm-1.862,5.42a9.184,9.184,0,0,1-6.121,8.71,9.184,9.184,0,0,1-6.12-8.71v-2.31a13.644,13.644,0,0,0,6.12-2.92,13.653,13.653,0,0,0,6.121,2.92v2.31h0Zm-24.156-25.12-3.113,3.87a1.709,1.709,0,0,1-2.389.27,1.688,1.688,0,0,1-.267-2.38l2.542-3.16a15.5,15.5,0,0,0-8.169-.02l2.556,3.18a1.688,1.688,0,0,1-.266,2.38,1.71,1.71,0,0,1-2.39-.27l-3.145-3.91a9.232,9.232,0,0,0-4.425,6.25l-3.634,19.5H411.3a1.69,1.69,0,1,1,0,3.38H395.7a1.695,1.695,0,0,1-1.672-2l4.007-21.5c0.925-4.96,4.556-8.69,9.96-10.22a19.144,19.144,0,0,1,9.184-.26,15.076,15.076,0,0,1,7.933,4.38,1.673,1.673,0,0,1-.11,2.38,1.706,1.706,0,0,1-2.4-.11A10.247,10.247,0,0,0,420.444,2536.71Zm6.827,32.47a1.7,1.7,0,0,1-1.7,1.69H420.5a1.8,1.8,0,0,1-1.742-1.77v-23.25a1.711,1.711,0,0,1,1.742-1.67h18.032a1.629,1.629,0,0,1,1.647,1.67v2a1.7,1.7,0,0,1-3.4,0v-0.29H422.158v19.93h3.413A1.7,1.7,0,0,1,427.271,2569.18Z" transform="translate(-394 -2501)"/>
</svg>
