<svg xmlns="http://www.w3.org/2000/svg" width="55" height="67.03" viewBox="0 0 55 67.03">
  <defs>
    <style>
      .cls-1 {
        fill: #3261ab;
        fill-rule: evenodd;
      }
    </style>
  </defs>
  <path id="Forma_1" data-name="Forma 1" class="cls-1" d="M808.288,1167.14l-0.082,2.82-9.714,10.42a3.332,3.332,0,0,0,.182,4.73,3.393,3.393,0,0,0,4.759-.18l10.575-11.34a0.558,0.558,0,0,0,.063-0.08l-0.8-2.04Zm30.579-35.15h0a2.822,2.822,0,0,0-3.928.56l-5.818,7.72-10.658-.59,4.305-.86-5.207-2.74a3.949,3.949,0,0,0-4.475.55l-11.747,4.1a2.786,2.786,0,0,0-1.83,2.13l-2.219,12.01a2.806,2.806,0,0,0,5.131,1.99,3.335,3.335,0,0,0,1.147,2.62c1.765,1.53,10.159,8.83,11.875,10.33,0.5,1.59,3.833,12.24,4.332,13.84a3.366,3.366,0,0,0,6.432-1.99c-0.391-1.25-4.692-14.96-4.692-14.96a3.323,3.323,0,0,0-.919-1.3l-12.59-10.96h0l9.4,5.13,6.695-12.55-5.529-1.72,11.6,0.8a2.835,2.835,0,0,0,2.4-1.11h0l6.857-9.1A2.773,2.773,0,0,0,838.867,1131.99Zm-34.13,13.47,4.147-1.45-5.936,11.13C803.816,1150.44,803.356,1152.93,804.737,1145.46Zm6.95-14.24a1.662,1.662,0,0,0,2.074,1.08l7.807-2.4a5.768,5.768,0,0,0,2.711,7.17,5.9,5.9,0,0,0,3.416.63l5.043-6.69a5.742,5.742,0,0,0-3.013-4.15,5.819,5.819,0,0,0-4.308-.46l-1.357-4.36a1.663,1.663,0,0,0-2.074-1.08l-10.731,3.29a1.656,1.656,0,0,0-1.1,2.07Zm-20.209-9.3h17.065a1.46,1.46,0,1,0,0-2.92H791.478A1.46,1.46,0,1,0,791.478,1121.92Zm10.753,4.26a1.463,1.463,0,0,0-1.471-1.46H786.471a1.46,1.46,0,1,0,0,2.92H800.76A1.463,1.463,0,0,0,802.231,1126.18Z" transform="translate(-785 -1119)"/>
</svg>
