<svg xmlns="http://www.w3.org/2000/svg" xmlns:xlink="http://www.w3.org/1999/xlink" width="70" height="67" viewBox="0 0 70 67">
  <defs>
    <style>
      .cls-1 {
        fill: #25ae60;
        fill-rule: evenodd;
        filter: url(#filter);
      }
    </style>
    <filter id="filter" x="390" y="2050" width="70" height="67" filterUnits="userSpaceOnUse">
      <feFlood result="flood" flood-color="#fff"/>
      <feComposite result="composite" operator="in" in2="SourceGraphic"/>
      <feBlend result="blend" in2="SourceGraphic"/>
    </filter>
  </defs>
  <path id="icon-services-1" class="cls-1" d="M405.45,2081.8h2.159v2.18H405.45v-2.18Zm54.55,0h-4.5c-3.277-6.27-9.481-9.85-17.131-9.85H419.555v-2.11l-6.88-5.56h-5.066v9.91a15.339,15.339,0,0,0-9.432,9.79H390l1.446,15.35h6.292c2.383,5.91,6.706,9.58,13.181,11.19V2117h8.636v-5.5h16.408v5.5H444.6v-6.54a19.878,19.878,0,0,0,13.566-18.86,11.866,11.866,0,0,0-.471-2.91c-0.042-.16-0.083-0.33-0.121-0.48l2.427-2.4v-4.01Zm-4.787,5.69,0.117,0.58c0.078,0.39.176,0.78,0.271,1.16a10,10,0,0,1,.4,2.37,17.679,17.679,0,0,1-12.777,17l-0.789.23v6h-4.318v-5.51H417.4v5.51h-4.318v-6.05l-0.855-.19c-6.519-1.39-10.565-4.8-12.733-10.72l-0.26-.71h-5.82l-0.614-6.52h1.715v-2.17h-1.919l-0.219-2.32h7.374l0.238-.76a13.14,13.14,0,0,1,7.623-8.83v1.91h2.159v-12.02h2.148l5.481,4.43v5.42h2.159v-2.17h18.814c7.034,0,12.681,3.36,15.494,9.23l0.294,0.62h3.684v0.92h0Zm-33.5-11.19h13.1v2.17h-13.1v-2.17Zm5.575-26.3a7.135,7.135,0,1,0,7.088,7.13A7.118,7.118,0,0,0,427.289,2050Zm0,12.07a4.94,4.94,0,1,1,4.907-4.94A4.925,4.925,0,0,1,427.289,2062.07Zm0.586-5.63c-0.888-.34-1.254-0.56-1.254-0.9,0-.3.219-0.59,0.9-0.59a3.551,3.551,0,0,1,1.5.35l0.3-1.18a3.688,3.688,0,0,0-1.516-.35v-0.93h-1.023v1a1.941,1.941,0,0,0-1.767,1.87c0,1.02.764,1.55,1.881,1.93,0.774,0.26,1.108.51,1.108,0.91a0.817,0.817,0,0,1-1,.65,3.692,3.692,0,0,1-1.734-.46l-0.314,1.23a4.184,4.184,0,0,0,1.776.45v1h1.025v-1.07a2.011,2.011,0,0,0,1.859-1.95C429.619,2057.46,429.118,2056.88,427.875,2056.44Z" transform="translate(-390 -2050)"/>
</svg>
