<svg xmlns="http://www.w3.org/2000/svg" xmlns:xlink="http://www.w3.org/1999/xlink" width="52" height="68" viewBox="0 0 52 68">
  <defs>
    <style>
      .cls-1 {
        fill: #27af62;
        fill-rule: evenodd;
        filter: url(#filter);
      }
    </style>
    <filter id="filter" x="1478" y="2275" width="52" height="68" filterUnits="userSpaceOnUse">
      <feFlood result="flood" flood-color="#fff"/>
      <feComposite result="composite" operator="in" in2="SourceGraphic"/>
      <feBlend result="blend" in2="SourceGraphic"/>
    </filter>
  </defs>
  <path id="icon-services-4" class="cls-1" d="M1519.67,2285.82a1.041,1.041,0,0,1-.82-0.39l-6.37-7.94-8.01,6.32a1.058,1.058,0,0,1-1.47-.17,1.022,1.022,0,0,1,.17-1.44l8.83-6.96a1.046,1.046,0,0,1,1.46.17l7.02,8.74a1.013,1.013,0,0,1-.17,1.44A0.97,0.97,0,0,1,1519.67,2285.82Zm-40.63,24.55a1.03,1.03,0,1,1,0-2.06,32.451,32.451,0,0,0,32.57-32.26,1.04,1.04,0,0,1,2.08,0A34.532,34.532,0,0,1,1479.04,2310.37Zm0,32.63a1.037,1.037,0,0,1-1.04-1.03v-15.84a1.04,1.04,0,0,1,2.08,0v15.84A1.037,1.037,0,0,1,1479.04,2343Zm16.64,0a1.037,1.037,0,0,1-1.04-1.03v-25.84a1.04,1.04,0,0,1,2.08,0v25.84A1.031,1.031,0,0,1,1495.68,2343Zm16.64,0a1.037,1.037,0,0,1-1.04-1.03v-33.03a1.04,1.04,0,0,1,2.08,0v33.03A1.037,1.037,0,0,1,1512.32,2343Zm16.64,0a1.037,1.037,0,0,1-1.04-1.03v-43.6a1.04,1.04,0,0,1,2.08,0v43.6A1.037,1.037,0,0,1,1528.96,2343Z" transform="translate(-1478 -2275)"/>
</svg>
