<svg xmlns="http://www.w3.org/2000/svg" xmlns:xlink="http://www.w3.org/1999/xlink" width="62" height="62" viewBox="0 0 62 62">
  <defs>
    <style>
      .cls-1 {
        fill: #25ae60;
        fill-rule: evenodd;
        filter: url(#filter);
      }
    </style>
    <filter id="filter" x="1468" y="2505" width="62" height="62" filterUnits="userSpaceOnUse">
      <feFlood result="flood" flood-color="#fff"/>
      <feComposite result="composite" operator="in" in2="SourceGraphic"/>
      <feBlend result="blend" in2="SourceGraphic"/>
    </filter>
  </defs>
  <path id="icon-services-2" class="cls-1" d="M1517.73,2528.76a7.168,7.168,0,0,0-5.81-2.95h-2.11a6.046,6.046,0,0,0-4.75,2.28l-6.07,7.37-6.08-7.37a6,6,0,0,0-4.74-2.28h-2.11a7.006,7.006,0,0,0-5.81,2.95l-12.25,17.3,9.63,6.99,5.28-7.52V2567h32.18v-21.47l5.28,7.52,9.63-6.99Zm-2.37,12.75a1.8,1.8,0,0,0-1.32-.67,1.536,1.536,0,0,0-1.58,1.61v21.99h-26.91v-21.99a1.536,1.536,0,0,0-1.58-1.61,1.6,1.6,0,0,0-1.32.67l-5.54,7.92-5.54-4.02,10.82-15.3a4.424,4.424,0,0,1,3.69-1.87h2.11a3.7,3.7,0,0,1,2.78,1.34l8.04,9.79,8.05-9.79a3.679,3.679,0,0,1,2.77-1.34h2.11a4.442,4.442,0,0,1,3.7,1.87l10.82,15.3-5.55,4.02Zm-16.36-14.5a11.007,11.007,0,1,0-10.82-11A10.963,10.963,0,0,0,1499,2527.01Zm0-19.44a8.451,8.451,0,1,1-8.31,8.45A8.347,8.347,0,0,1,1499,2507.57Zm-2.77,10.06-1.32,1.6a6.5,6.5,0,0,0,3.43,1.75v1.07h1.72v-1.07a3.152,3.152,0,0,0,2.24-.94,3.317,3.317,0,0,0,.8-2.15,2.361,2.361,0,0,0-.8-2.01,6.461,6.461,0,0,0-2.38-1.08v-2.15c0.54,0.27,1.05.53,1.72,0.94l1.19-1.61a6.623,6.623,0,0,0-2.89-1.2v-0.81h-1.59v0.81a3.934,3.934,0,0,0-2.11.94,2.728,2.728,0,0,0-.8,2.01,2.157,2.157,0,0,0,.66,1.87,5.836,5.836,0,0,0,2.24,1.08v2.27A7.3,7.3,0,0,1,1496.23,2517.63Zm3.82-.54a1.872,1.872,0,0,1,.53.41,0.651,0.651,0,0,1,.13.53,0.9,0.9,0,0,1-.66.94v-1.88Zm-2.37-3.63a0.867,0.867,0,0,1,.66-0.81v1.75A1.17,1.17,0,0,1,1497.68,2513.46Zm3.43,28.99h8.05V2545h-8.05v-2.55Z" transform="translate(-1468 -2505)"/>
</svg>
