<svg xmlns="http://www.w3.org/2000/svg" width="78" height="71" viewBox="0 0 78 71">
  <defs>
    <style>
      .cls-1 {
        fill: #25ae60;
        fill-rule: evenodd;
      }
    </style>
  </defs>
  <path id="innumbers-icon-1" class="cls-1" d="M503.518,2151.37L491.1,2145.2a3.388,3.388,0,0,1-1.9-3.05v-4.37c0.3-.36.611-0.77,0.935-1.22a29.579,29.579,0,0,0,3.84-7.49A5.13,5.13,0,0,0,497,2124.4v-5.16a5.116,5.116,0,0,0-1.3-3.39v-6.87a11.508,11.508,0,0,0-2.72-8.42c-2.67-3.03-7-4.56-12.88-4.56s-10.21,1.53-12.88,4.56a11.152,11.152,0,0,0-2.684,6.2,17.029,17.029,0,0,0-7.836-1.72c-13.506,0-14.292,11.43-14.3,11.61v5.92a4.468,4.468,0,0,0-1.3,3v4.46a4.589,4.589,0,0,0,1.7,3.57,19.8,19.8,0,0,0,4.737,8.12v3.54a2.812,2.812,0,0,1-1.522,2.47l-8.649,5.39a10.2,10.2,0,0,0-5.37,8.98v4.9h78v-5.22A11.559,11.559,0,0,0,503.518,2151.37ZM450.2,2161.53v2.89H434.6v-2.32a7.685,7.685,0,0,1,4.083-6.76l8.648-5.38a5.347,5.347,0,0,0,2.809-4.7v-4.64l-0.413-.38a17.164,17.164,0,0,1-4.509-7.69l-0.118-.51-0.445-.29a2.03,2.03,0,0,1-.955-1.72v-4.46a2.258,2.258,0,0,1,.872-1.51l0.428-.39,0-6.94c0.024-.37.7-9.11,11.7-9.11a13.593,13.593,0,0,1,7.8,2.12v6.11a5.116,5.116,0,0,0-1.3,3.39v5.16a5.166,5.166,0,0,0,.131,1.15,4.457,4.457,0,0,0,.154.43,5.162,5.162,0,0,0,.228.65s0,0,0,.01a5.109,5.109,0,0,0,1.429,1.77,0.614,0.614,0,0,0,.021.07c0.078,0.3.16,0.59,0.248,0.88l0.1,0.34c0.019,0.06.041,0.12,0.06,0.18,0.046,0.14.09,0.27,0.137,0.41,0.078,0.23.16,0.46,0.255,0.72,0.04,0.1.084,0.2,0.126,0.3,0.106,0.27.213,0.53,0.325,0.79,0.027,0.06.05,0.13,0.078,0.19l0.072,0.16c0.034,0.08.069,0.14,0.1,0.22,0.128,0.27.252,0.54,0.382,0.8,0.021,0.04.041,0.09,0.061,0.13,0.082,0.16.164,0.31,0.246,0.47,0.141,0.26.278,0.51,0.416,0.76,0.068,0.11.134,0.23,0.2,0.34,0.188,0.32.366,0.61,0.539,0.88,0.037,0.06.074,0.12,0.11,0.18,0.315,0.48.588,0.87,0.814,1.18,0.06,0.08.112,0.15,0.162,0.22,0.029,0.04.068,0.09,0.093,0.12v4.28a3.4,3.4,0,0,1-1.79,2.99l-3.44,1.86-0.6-.05-0.244.51-7.314,3.96A11.639,11.639,0,0,0,450.2,2161.53Zm57.2,2.89H452.8v-2.89a9.054,9.054,0,0,1,4.757-7.96l11.6-6.28a5.985,5.985,0,0,0,3.146-5.26v-5.19h0l-0.252-.3-0.05-.06s-0.083-.1-0.214-0.27l-0.025-.03c-0.069-.09-0.149-0.2-0.242-0.32,0-.01,0-0.01,0-0.01-0.194-.27-0.437-0.62-0.708-1.03-0.006-.01-0.011-0.02-0.018-0.03-0.127-.2-0.263-0.42-0.4-0.64-0.011-.02-0.021-0.04-0.031-0.06-0.294-.48-0.606-1.04-0.917-1.65h0c-0.165-.33-0.331-0.68-0.492-1.04h0l-0.067-.15h0c-0.072-.16-0.143-0.33-0.216-0.5-0.026-.07-0.052-0.13-0.078-0.2-0.068-.17-0.137-0.34-0.209-0.53-0.133-.35-0.258-0.72-0.377-1.1l-0.072-.23a0.78,0.78,0,0,1-.025-0.08c-0.122-.4-0.239-0.82-0.338-1.25l-0.118-.51-0.443-.29a2.561,2.561,0,0,1-1.2-2.16v-5.16a2.55,2.55,0,0,1,.871-1.91l0.429-.38v-8.5l-0.035-.02a8.9,8.9,0,0,1,2.11-6.17c2.154-2.44,5.83-3.68,10.925-3.68,5.077,0,8.745,1.23,10.9,3.65a9.049,9.049,0,0,1,2.11,6.51l-0.012,8.21,0.429,0.38a2.55,2.55,0,0,1,.871,1.91v5.16a2.567,2.567,0,0,1-1.849,2.45l-0.647.2-0.208.64a26.929,26.929,0,0,1-3.684,7.37,16.53,16.53,0,0,1-1.088,1.4l-0.324.36v5.33a5.958,5.958,0,0,0,3.336,5.36l12.419,6.16a9.024,9.024,0,0,1,5.045,8.11v2.64Z" transform="translate(-432 -2096)"/>
</svg>
