<svg xmlns="http://www.w3.org/2000/svg" width="64.03" height="64" viewBox="0 0 64.03 64">
  <defs>
    <style>
      .cls-1 {
        fill: #25ae60;
        fill-rule: evenodd;
      }
    </style>
  </defs>
  <path id="innumbers-icon-4" class="cls-1" d="M1487,2129.33c0-16.17-13.38-29.33-29.83-29.33a30.013,30.013,0,0,0-21.87,9.39,4.452,4.452,0,0,0-6.04-.25l-3.42,2.71a7.9,7.9,0,0,0-2.77,5.61c-0.75,7.06,4.19,18.22,12.59,28.43,8.91,10.83,19.7,18.11,26.86,18.11h0a7.6,7.6,0,0,0,4.88-1.55l3.42-2.71a4.347,4.347,0,0,0,1.44-5.1A29.187,29.187,0,0,0,1487,2129.33Zm-17.84,28.32-3.42,2.72a5.059,5.059,0,0,1-3.22.96c-6.3,0-16.5-7.04-24.8-17.14-7.84-9.53-12.66-20.16-12-26.45a5.4,5.4,0,0,1,1.78-3.8l3.42-2.71a1.812,1.812,0,0,1,2.54.12l6.53,7.93a1.724,1.724,0,0,1-.41,2.41,9.12,9.12,0,0,0-3.29,6.37c-0.45,4.28,1.34,9.34,4.78,13.53,3.8,4.62,9.05,7.48,13.7,7.48a9.09,9.09,0,0,0,5.73-1.88,1.889,1.889,0,0,1,2.54.12l6.53,7.93A1.742,1.742,0,0,1,1469.16,2157.65Zm1.56-5.2-5.62-6.83a4.448,4.448,0,0,0-6.26-.52,6.8,6.8,0,0,1-4.07,1.31c-3.88,0-8.34-2.5-11.64-6.52-3-3.64-4.56-7.96-4.18-11.55a6.626,6.626,0,0,1,2.29-4.57,4.373,4.373,0,0,0,.81-6.19l-5.04-6.12a27.359,27.359,0,0,1,20.16-8.79c0.67,0,1.34.02,2,.07v4.19h2.67v-3.87a26.931,26.931,0,0,1,22.33,23.34h-4.2v2.67h4.36v0.26A26.538,26.538,0,0,1,1470.72,2152.45Zm-19.48-18.95,1.39-1.27c3.68-3.48,6.02-6.04,6.02-9.21,0-2.45-1.58-4.98-5.34-4.98a7.771,7.771,0,0,0-4.95,1.74l0.76,1.63a5.977,5.977,0,0,1,3.7-1.45c2.61,0,3.47,1.61,3.47,3.35-0.03,2.59-2.04,4.81-6.5,8.98l-1.86,1.77v1.42h11.15v-1.93h-7.84v-0.05h0Zm20.01-15.17h-2.55l-7.79,10.95v1.53h8.11v4.67h2.23v-4.67h2.44v-1.82h-2.44v-10.66h0Zm-2.23,4.93v5.73h-5.72v-0.05l4.27-5.84c0.48-.79.91-1.53,1.45-2.53h0.08C1469.05,2121.47,1469.02,2122.36,1469.02,2123.26Z" transform="translate(-1422.97 -2100)"/>
</svg>
