<svg xmlns="http://www.w3.org/2000/svg" width="62" height="67" viewBox="0 0 62 67">
  <defs>
    <style>
      .cls-1 {
        fill: #25ae60;
        fill-rule: evenodd;
      }
    </style>
  </defs>
  <path id="innumbers-icon-2" class="cls-1" d="M774.326,2120.29a1.109,1.109,0,0,0,1.372-.76,26.524,26.524,0,0,1,31.085-18.71,5.869,5.869,0,0,0,1.091,3.42c0.122,0.2.29,0.46,0.31,0.5,0,4.01-.812,4.66-0.8,4.66a7.884,7.884,0,0,0-5.847,3.7,3.591,3.591,0,0,0,.154,3.81,27.434,27.434,0,0,1,1.438,2.58c0.941,1.83,1.985,3.87,3.625,3.87a2.54,2.54,0,0,0,1.126-.29c1.291-.65,2.216-2.5,3.111-4.29a14.416,14.416,0,0,1,1.316-2.32c1.124,0.16,1.673,1.18,2.416,2.81a5.736,5.736,0,0,0,2.224,2.99c1.871,0.94,8.024-.05,11.424-1.5a1.126,1.126,0,0,0,.635-1.32,29.1,29.1,0,0,0-16.886-19.28,1.1,1.1,0,0,0-1.445.61,1.113,1.113,0,0,0,.606,1.45,26.9,26.9,0,0,1,15.311,16.84c-3.446,1.22-7.868,1.59-8.655,1.2a4.762,4.762,0,0,1-1.2-1.93c-0.772-1.69-1.829-3.99-4.528-4.12-1.4-.08-2.182,1.54-3.192,3.56-0.594,1.19-1.49,2.98-2.2,3.33-0.41-.09-1.226-1.69-1.714-2.64a28.909,28.909,0,0,0-1.563-2.79,1.337,1.337,0,0,1-.044-1.51,5.882,5.882,0,0,1,3.895-2.53c2,0,3.017-2.31,3.017-6.89a3.206,3.206,0,0,0-.65-1.69,3.431,3.431,0,0,1-.667-2.85,1.116,1.116,0,0,0-.81-1.32,28.73,28.73,0,0,0-34.7,20.02A1.12,1.12,0,0,0,774.326,2120.29Zm40.169,7.32a7.5,7.5,0,0,1-.873.23c-1.53,0-2.5,1.2-3.207,2.07a2.562,2.562,0,0,1-1.07.94,3.474,3.474,0,0,0-1.563-.38,2.666,2.666,0,0,0-2.688,1.86,2.169,2.169,0,0,0,1.351,2.44,20.526,20.526,0,0,1,4.484,2.68,3.838,3.838,0,0,0,2.7.9,4.967,4.967,0,0,0,4.858-3.26,6.251,6.251,0,0,1,1.793-2.38c0.844-.81,1.642-1.58,1.653-2.69a2.582,2.582,0,0,0-.85-1.85,4.234,4.234,0,0,0-3.151-1.18A12.876,12.876,0,0,0,814.5,2127.61Zm5.226,2.38a4.9,4.9,0,0,1-.97,1.11,8.166,8.166,0,0,0-2.362,3.28,2.846,2.846,0,0,1-2.758,1.74,2.043,2.043,0,0,1-1.135-.25,21.082,21.082,0,0,0-5.061-3.1h-0.012a1.207,1.207,0,0,1,.932.08,2.415,2.415,0,0,0,1.091.27c1.225,0,2-.96,2.681-1.8a2.769,2.769,0,0,1,1.5-1.24,6,6,0,0,0,1.481-.32,10.829,10.829,0,0,1,2.831-.54,2.1,2.1,0,0,1,1.584.53A1.613,1.613,0,0,1,819.721,2129.99Zm10-6.97a1.107,1.107,0,1,0-2.193.3,27.532,27.532,0,0,1,.253,3.71,26.72,26.72,0,0,1-26.252,26.8c-3.937-2.53-7.627-5.64-5.983-9.51,2.952-6.95.205-9.54-.969-10.65l-0.22-.21a5.9,5.9,0,0,0-1.047-.77c-0.811-.49-1.029-0.62-0.594-1.93a4.167,4.167,0,0,1,1.113-1.76c1.024-1.09,1.807-2.18,1.807-5.34a4.218,4.218,0,0,0-2.537-4.02,5.5,5.5,0,0,0-5.56.66,2.529,2.529,0,0,0-.743,2.75c0.79,2.39-1.014,5.84-4.384,8.38-0.892.68-1.158,0.37-1.318,0.19-0.988-1.15-.912-4.42-0.1-5.24a1.662,1.662,0,0,0,.431-1.87c-0.9-2.05-6.617-1.89-7.752-1.84a1.108,1.108,0,0,0-1.048.98,26.5,26.5,0,0,0-.2,3.38,28.926,28.926,0,0,0,21.859,28.19,1.117,1.117,0,0,0,.53-2.17,26.7,26.7,0,0,1-20.174-26.02c0-.77.026-1.46,0.085-2.15a16.116,16.116,0,0,1,4.276.46c-1.27,2-1.131,5.93.422,7.74,1.112,1.29,2.727,1.35,4.319.14,4.253-3.22,6.277-7.49,5.156-10.87a0.313,0.313,0,0,1,.133-0.4,3.329,3.329,0,0,1,3.174-.27,1.977,1.977,0,0,1,1.218,1.98c0,2.52-.5,3.06-1.2,3.81a6.359,6.359,0,0,0-1.605,2.58c-1,3.02.6,3.98,1.555,4.56a3.681,3.681,0,0,1,.622.43l0.273,0.27c0.974,0.91,2.786,2.62.446,8.13-2.652,6.24,4.187,10.6,7.108,12.45a1.048,1.048,0,0,0,.591.18A28.949,28.949,0,0,0,830,2127.03,29.421,29.421,0,0,0,829.725,2123.02Zm-10.01,29.1a30.571,30.571,0,0,1-18.5,6.18,31.173,31.173,0,0,1-31-31.27,1.107,1.107,0,1,0-2.214,0,33.414,33.414,0,0,0,32.107,33.48v3.37a1.107,1.107,0,1,0,2.214,0v-3.39a32.68,32.68,0,0,0,18.718-6.58,1.118,1.118,0,0,0,.226-1.56A1.1,1.1,0,0,0,819.715,2152.12Zm-17.654-8.88c-1.382,0-3,1.61-3.594,3.05a2.549,2.549,0,0,0,.378,2.88,3.976,3.976,0,0,0,5.384,0,2.879,2.879,0,0,0,.5-3.07,6.3,6.3,0,0,0-1.46-2.36A1.7,1.7,0,0,0,802.061,2143.24Zm0.6,4.35a1.933,1.933,0,0,1-2.247.01,1.361,1.361,0,0,1,.279-0.82,3.734,3.734,0,0,1,1.213-1.24,4.137,4.137,0,0,1,.725,1.27A0.92,0.92,0,0,1,802.663,2147.59Z" transform="translate(-768 -2098)"/>
</svg>
