<svg xmlns="http://www.w3.org/2000/svg" width="52" height="66" viewBox="0 0 52 66">
  <defs>
    <style>
      .cls-1 {
        fill: #25ae60;
        fill-rule: evenodd;
      }
    </style>
  </defs>
  <path id="innumbers-icon-3" class="cls-1" d="M1146.47,2102.11h-7.99V2099h-22.96v3.11h-7.99a6.517,6.517,0,0,0-6.53,6.49v49.9a6.519,6.519,0,0,0,6.53,6.5h38.94a6.519,6.519,0,0,0,6.53-6.5v-49.9A6.517,6.517,0,0,0,1146.47,2102.11Zm-28.25-.42h17.56v3.52h-17.56v-3.52Zm32.08,56.81a3.826,3.826,0,0,1-3.83,3.81h-38.94a3.826,3.826,0,0,1-3.83-3.81v-49.9a3.826,3.826,0,0,1,3.83-3.81h7.99v3.11h22.96v-3.11h7.99a3.826,3.826,0,0,1,3.83,3.81v49.9Zm-11.56-29.17-1.4,2.12a0.76,0.76,0,0,1-1.26.01l-0.04-.06a3.469,3.469,0,0,0-5.99.5l-0.75,1.61a0.753,0.753,0,0,1-1.41-.13l-1.64-6.4a3.4,3.4,0,0,0-3.35-2.6h-0.02a3.415,3.415,0,0,0-3.34,2.63l-1.47,6.04a0.759,0.759,0,0,1-1.43.12l-1.45-3.32a3.45,3.45,0,0,0-3.17-2.07h-3.89v2.69h3.89a0.742,0.742,0,0,1,.69.45l1.46,3.32a3.465,3.465,0,0,0,6.53-.56l1.47-6.04a0.752,0.752,0,0,1,1.46,0l1.64,6.4a3.388,3.388,0,0,0,3.03,2.57c0.11,0.01.22,0.02,0.33,0.02a3.407,3.407,0,0,0,3.12-1.99l0.75-1.61a0.763,0.763,0,0,1,1.31-.11l0.04,0.06a3.451,3.451,0,0,0,2.85,1.49h0.04a3.433,3.433,0,0,0,2.85-1.54l1.41-2.12a0.729,0.729,0,0,1,.63-0.34h4.24v-2.69h-4.24A3.451,3.451,0,0,0,1138.74,2129.33Zm-30.61,18.34h15.25v2.69h-15.25v-2.69Zm0,6.57h30.5v2.68h-30.5v-2.68Z" transform="translate(-1101 -2099)"/>
</svg>
